<svg width="32" height="32" viewBox="0 0 32 32" fill="none" xmlns="http://www.w3.org/2000/svg">
<rect width="32" height="32" rx="16" fill="white"/>
<rect x="4" y="4" width="24" height="24" rx="12" fill="#FAFAFA"/>
<path d="M11 16C11 15.7239 11.2239 15.5 11.5 15.5H20.5C20.7761 15.5 21 15.7239 21 16C21 16.2761 20.7761 16.5 20.5 16.5H11.5C11.2239 16.5 11 16.2761 11 16Z" fill="#222222"/>
<path d="M11 16C11 15.7239 11.2239 15.5 11.5 15.5H20.5C20.7761 15.5 21 15.7239 21 16C21 16.2761 20.7761 16.5 20.5 16.5H11.5C11.2239 16.5 11 16.2761 11 16Z" fill="black" fill-opacity="0.2"/>
<path d="M16 21C15.7239 21 15.5 20.7761 15.5 20.5L15.5 11.5C15.5 11.2239 15.7239 11 16 11C16.2761 11 16.5 11.2239 16.5 11.5L16.5 20.5C16.5 20.7761 16.2761 21 16 21Z" fill="#222222"/>
<path d="M16 21C15.7239 21 15.5 20.7761 15.5 20.5L15.5 11.5C15.5 11.2239 15.7239 11 16 11C16.2761 11 16.5 11.2239 16.5 11.5L16.5 20.5C16.5 20.7761 16.2761 21 16 21Z" fill="black" fill-opacity="0.2"/>
</svg>
