<svg width="32" height="32" viewBox="0 0 32 32" fill="none" xmlns="http://www.w3.org/2000/svg">
<rect width="32" height="32" rx="16" fill="white"/>
<rect x="4" y="4" width="24" height="24" rx="12" fill="#FAFAFA"/>
<path d="M11 15.5C11 15.2239 11.2239 15 11.5 15H20.5C20.7761 15 21 15.2239 21 15.5C21 15.7761 20.7761 16 20.5 16H11.5C11.2239 16 11 15.7761 11 15.5Z" fill="#222222"/>
<path d="M11 15.5C11 15.2239 11.2239 15 11.5 15H20.5C20.7761 15 21 15.2239 21 15.5C21 15.7761 20.7761 16 20.5 16H11.5C11.2239 16 11 15.7761 11 15.5Z" fill="black" fill-opacity="0.2"/>
</svg>
