<svg width="20" height="20" viewBox="0 0 20 20" fill="none" xmlns="http://www.w3.org/2000/svg">
<path d="M17.3016 9.37706V16.0122C17.3016 16.4287 17.1624 16.7808 16.8839 17.0685C16.6055 17.3562 16.2647 17.5 15.8615 17.5H4.1414C3.73822 17.5 3.39742 17.3543 3.119 17.0629C2.84058 16.7715 2.70137 16.424 2.70137 16.0205V9.33636C2.1915 9.00129 1.87599 8.568 1.75484 8.03651C1.63368 7.50501 1.63741 6.9502 1.76604 6.37211L2.76165 3.51579C2.8363 3.1595 2.99793 2.90113 3.24655 2.74067C3.49517 2.58022 3.80823 2.5 4.18573 2.5H15.8C16.1775 2.5 16.4882 2.57108 16.7323 2.71324C16.9763 2.85541 17.1402 3.11703 17.224 3.4981L18.2369 6.37211C18.3655 6.9502 18.3655 7.5109 18.2369 8.0542C18.1083 8.5975 17.7965 9.03846 17.3016 9.37706ZM11.972 8.57364C12.3717 8.57364 12.6984 8.45447 12.9522 8.21615C13.206 7.97783 13.3179 7.7053 13.2881 7.39855L12.699 3.69628H10.6732V7.23054C10.6732 7.60799 10.8007 7.92621 11.0557 8.18518C11.3106 8.44415 11.616 8.57364 11.972 8.57364ZM8.01968 8.57364C8.39463 8.57364 8.7067 8.44415 8.95591 8.18518C9.20509 7.92621 9.32969 7.60799 9.32969 7.23054V3.69628H7.30395L6.71484 7.43393C6.69648 7.6994 6.81132 7.95571 7.05936 8.20287C7.30741 8.45005 7.62752 8.57364 8.01968 8.57364ZM4.08971 8.57364C4.42159 8.57364 4.70697 8.47011 4.94584 8.26305C5.1847 8.05598 5.3248 7.79554 5.36613 7.48172L5.96042 3.69628H4.19308C4.09546 3.69628 4.01794 3.7184 3.96053 3.76265C3.9031 3.8069 3.86003 3.87327 3.83132 3.96177L2.8581 6.81806C2.70995 7.25932 2.76191 7.66222 3.01398 8.02678C3.26605 8.39135 3.62463 8.57364 4.08971 8.57364ZM15.9132 8.57364C16.3381 8.57364 16.6904 8.39726 16.97 8.0445C17.2496 7.69172 17.3154 7.28291 17.1672 6.81806L16.1716 3.94405C16.1429 3.85557 16.0998 3.79215 16.0424 3.75379C15.985 3.71545 15.9075 3.69628 15.8099 3.69628H14.0425L14.6368 7.48172C14.6781 7.79554 14.822 8.05598 15.0683 8.26305C15.3146 8.47011 15.5963 8.57364 15.9132 8.57364ZM4.1414 16.3037H15.8615C15.9419 16.3037 16.008 16.2772 16.0596 16.2241C16.1113 16.171 16.1372 16.1031 16.1372 16.0205V9.73453C16.1142 9.74042 16.0812 9.74779 16.0381 9.75664C15.995 9.76549 15.9534 9.76992 15.9132 9.76992C15.54 9.76992 15.1854 9.69116 14.8495 9.53366C14.5136 9.37616 14.2171 9.13224 13.9599 8.80188C13.7084 9.12043 13.4157 9.3614 13.0819 9.52481C12.7481 9.68821 12.3666 9.76992 11.9376 9.76992C11.5847 9.76992 11.2519 9.6888 10.9391 9.52658C10.6264 9.36435 10.3138 9.12279 10.0015 8.80188C9.72471 9.12279 9.40747 9.36435 9.04976 9.52658C8.69205 9.6888 8.34094 9.76992 7.99643 9.76992C7.65193 9.76992 7.31402 9.70621 6.98273 9.5788C6.65142 9.45138 6.34394 9.19241 6.06029 8.80188C5.66846 9.19734 5.30638 9.45755 4.97406 9.58251C4.64173 9.70745 4.34695 9.76992 4.08971 9.76992C4.04952 9.76992 4.01077 9.76549 3.97345 9.75664C3.93611 9.74779 3.90022 9.74042 3.86578 9.73453V16.0205C3.86578 16.1031 3.89162 16.171 3.94328 16.2241C3.99497 16.2772 4.061 16.3037 4.1414 16.3037Z" fill="#222222"/>
<path d="M17.3016 9.37706V16.0122C17.3016 16.4287 17.1624 16.7808 16.8839 17.0685C16.6055 17.3562 16.2647 17.5 15.8615 17.5H4.1414C3.73822 17.5 3.39742 17.3543 3.119 17.0629C2.84058 16.7715 2.70137 16.424 2.70137 16.0205V9.33636C2.1915 9.00129 1.87599 8.568 1.75484 8.03651C1.63368 7.50501 1.63741 6.9502 1.76604 6.37211L2.76165 3.51579C2.8363 3.1595 2.99793 2.90113 3.24655 2.74067C3.49517 2.58022 3.80823 2.5 4.18573 2.5H15.8C16.1775 2.5 16.4882 2.57108 16.7323 2.71324C16.9763 2.85541 17.1402 3.11703 17.224 3.4981L18.2369 6.37211C18.3655 6.9502 18.3655 7.5109 18.2369 8.0542C18.1083 8.5975 17.7965 9.03846 17.3016 9.37706ZM11.972 8.57364C12.3717 8.57364 12.6984 8.45447 12.9522 8.21615C13.206 7.97783 13.3179 7.7053 13.2881 7.39855L12.699 3.69628H10.6732V7.23054C10.6732 7.60799 10.8007 7.92621 11.0557 8.18518C11.3106 8.44415 11.616 8.57364 11.972 8.57364ZM8.01968 8.57364C8.39463 8.57364 8.7067 8.44415 8.95591 8.18518C9.20509 7.92621 9.32969 7.60799 9.32969 7.23054V3.69628H7.30395L6.71484 7.43393C6.69648 7.6994 6.81132 7.95571 7.05936 8.20287C7.30741 8.45005 7.62752 8.57364 8.01968 8.57364ZM4.08971 8.57364C4.42159 8.57364 4.70697 8.47011 4.94584 8.26305C5.1847 8.05598 5.3248 7.79554 5.36613 7.48172L5.96042 3.69628H4.19308C4.09546 3.69628 4.01794 3.7184 3.96053 3.76265C3.9031 3.8069 3.86003 3.87327 3.83132 3.96177L2.8581 6.81806C2.70995 7.25932 2.76191 7.66222 3.01398 8.02678C3.26605 8.39135 3.62463 8.57364 4.08971 8.57364ZM15.9132 8.57364C16.3381 8.57364 16.6904 8.39726 16.97 8.0445C17.2496 7.69172 17.3154 7.28291 17.1672 6.81806L16.1716 3.94405C16.1429 3.85557 16.0998 3.79215 16.0424 3.75379C15.985 3.71545 15.9075 3.69628 15.8099 3.69628H14.0425L14.6368 7.48172C14.6781 7.79554 14.822 8.05598 15.0683 8.26305C15.3146 8.47011 15.5963 8.57364 15.9132 8.57364ZM4.1414 16.3037H15.8615C15.9419 16.3037 16.008 16.2772 16.0596 16.2241C16.1113 16.171 16.1372 16.1031 16.1372 16.0205V9.73453C16.1142 9.74042 16.0812 9.74779 16.0381 9.75664C15.995 9.76549 15.9534 9.76992 15.9132 9.76992C15.54 9.76992 15.1854 9.69116 14.8495 9.53366C14.5136 9.37616 14.2171 9.13224 13.9599 8.80188C13.7084 9.12043 13.4157 9.3614 13.0819 9.52481C12.7481 9.68821 12.3666 9.76992 11.9376 9.76992C11.5847 9.76992 11.2519 9.6888 10.9391 9.52658C10.6264 9.36435 10.3138 9.12279 10.0015 8.80188C9.72471 9.12279 9.40747 9.36435 9.04976 9.52658C8.69205 9.6888 8.34094 9.76992 7.99643 9.76992C7.65193 9.76992 7.31402 9.70621 6.98273 9.5788C6.65142 9.45138 6.34394 9.19241 6.06029 8.80188C5.66846 9.19734 5.30638 9.45755 4.97406 9.58251C4.64173 9.70745 4.34695 9.76992 4.08971 9.76992C4.04952 9.76992 4.01077 9.76549 3.97345 9.75664C3.93611 9.74779 3.90022 9.74042 3.86578 9.73453V16.0205C3.86578 16.1031 3.89162 16.171 3.94328 16.2241C3.99497 16.2772 4.061 16.3037 4.1414 16.3037Z" fill="black" fill-opacity="0.2"/>
</svg>
