<svg width="24" height="24" viewBox="0 0 24 24" fill="none" xmlns="http://www.w3.org/2000/svg">
<path fill-rule="evenodd" clip-rule="evenodd" d="M9.63371 16.4924C9.98985 16.4924 10.3276 16.6505 10.5556 16.9241L12.0001 18.6576L13.4447 16.9241C13.6727 16.6505 14.0105 16.4924 14.3666 16.4924H18.5192C18.961 16.4924 19.3192 16.1342 19.3192 15.6924V6.44043C19.3192 5.9986 18.961 5.64043 18.5192 5.64043H5.48096C5.03913 5.64043 4.68096 5.9986 4.68096 6.44043V15.6924C4.68096 16.1342 5.03913 16.4924 5.48096 16.4924H9.63371ZM3.48096 6.44043C3.48096 5.33586 4.37639 4.44043 5.48096 4.44043H18.5192C19.6237 4.44043 20.5192 5.33586 20.5192 6.44043V15.6924C20.5192 16.7969 19.6237 17.6924 18.5192 17.6924H14.3666L12.7684 19.6102C12.3686 20.09 11.6317 20.09 11.2319 19.6102L9.63371 17.6924H5.48096C4.37639 17.6924 3.48096 16.7969 3.48096 15.6924V6.44043Z" fill="#222222"/>
<path fill-rule="evenodd" clip-rule="evenodd" d="M9.63371 16.4924C9.98985 16.4924 10.3276 16.6505 10.5556 16.9241L12.0001 18.6576L13.4447 16.9241C13.6727 16.6505 14.0105 16.4924 14.3666 16.4924H18.5192C18.961 16.4924 19.3192 16.1342 19.3192 15.6924V6.44043C19.3192 5.9986 18.961 5.64043 18.5192 5.64043H5.48096C5.03913 5.64043 4.68096 5.9986 4.68096 6.44043V15.6924C4.68096 16.1342 5.03913 16.4924 5.48096 16.4924H9.63371ZM3.48096 6.44043C3.48096 5.33586 4.37639 4.44043 5.48096 4.44043H18.5192C19.6237 4.44043 20.5192 5.33586 20.5192 6.44043V15.6924C20.5192 16.7969 19.6237 17.6924 18.5192 17.6924H14.3666L12.7684 19.6102C12.3686 20.09 11.6317 20.09 11.2319 19.6102L9.63371 17.6924H5.48096C4.37639 17.6924 3.48096 16.7969 3.48096 15.6924V6.44043Z" fill="black" fill-opacity="0.2"/>
<path d="M9.4002 11.05C9.4002 11.5194 9.01964 11.9 8.5502 11.9C8.08075 11.9 7.7002 11.5194 7.7002 11.05C7.7002 10.5805 8.08075 10.2 8.5502 10.2C9.01964 10.2 9.4002 10.5805 9.4002 11.05Z" fill="#222222"/>
<path d="M9.4002 11.05C9.4002 11.5194 9.01964 11.9 8.5502 11.9C8.08075 11.9 7.7002 11.5194 7.7002 11.05C7.7002 10.5805 8.08075 10.2 8.5502 10.2C9.01964 10.2 9.4002 10.5805 9.4002 11.05Z" fill="black" fill-opacity="0.2"/>
<path d="M12.8006 11.05C12.8006 11.5194 12.42 11.9 11.9506 11.9C11.4811 11.9 11.1006 11.5194 11.1006 11.05C11.1006 10.5805 11.4811 10.2 11.9506 10.2C12.42 10.2 12.8006 10.5805 12.8006 11.05Z" fill="#222222"/>
<path d="M12.8006 11.05C12.8006 11.5194 12.42 11.9 11.9506 11.9C11.4811 11.9 11.1006 11.5194 11.1006 11.05C11.1006 10.5805 11.4811 10.2 11.9506 10.2C12.42 10.2 12.8006 10.5805 12.8006 11.05Z" fill="black" fill-opacity="0.2"/>
<path d="M15.3512 11.9C14.8817 11.9 14.5012 11.5194 14.5012 11.05C14.5012 10.5805 14.8817 10.2 15.3512 10.2C15.8206 10.2 16.2012 10.5805 16.2012 11.05C16.2012 11.5194 15.8206 11.9 15.3512 11.9Z" fill="#222222"/>
<path d="M15.3512 11.9C14.8817 11.9 14.5012 11.5194 14.5012 11.05C14.5012 10.5805 14.8817 10.2 15.3512 10.2C15.8206 10.2 16.2012 10.5805 16.2012 11.05C16.2012 11.5194 15.8206 11.9 15.3512 11.9Z" fill="black" fill-opacity="0.2"/>
</svg>
