<svg width="20" height="20" viewBox="0 0 20 20" fill="none" xmlns="http://www.w3.org/2000/svg">
<path fill-rule="evenodd" clip-rule="evenodd" d="M10 17.5714C14.1816 17.5714 17.5714 14.1816 17.5714 10C17.5714 5.81843 14.1816 2.42859 10 2.42859C5.81843 2.42859 2.42859 5.81843 2.42859 10C2.42859 14.1816 5.81843 17.5714 10 17.5714ZM10 18.5714C14.7339 18.5714 18.5714 14.7339 18.5714 10C18.5714 5.26615 14.7339 1.42859 10 1.42859C5.26615 1.42859 1.42859 5.26615 1.42859 10C1.42859 14.7339 5.26615 18.5714 10 18.5714Z" fill="#222222"/>
<path fill-rule="evenodd" clip-rule="evenodd" d="M10 17.5714C14.1816 17.5714 17.5714 14.1816 17.5714 10C17.5714 5.81843 14.1816 2.42859 10 2.42859C5.81843 2.42859 2.42859 5.81843 2.42859 10C2.42859 14.1816 5.81843 17.5714 10 17.5714ZM10 18.5714C14.7339 18.5714 18.5714 14.7339 18.5714 10C18.5714 5.26615 14.7339 1.42859 10 1.42859C5.26615 1.42859 1.42859 5.26615 1.42859 10C1.42859 14.7339 5.26615 18.5714 10 18.5714Z" fill="black" fill-opacity="0.2"/>
<path fill-rule="evenodd" clip-rule="evenodd" d="M12.0256 8.51866C12.5496 8.51866 12.9767 8.09156 12.9767 7.56655C12.9767 7.04257 12.5496 6.61548 12.0256 6.61548C11.5006 6.61548 11.0735 7.04257 11.0735 7.56655C11.0735 8.09156 11.5006 8.51866 12.0256 8.51866ZM13.3098 10.9125C13.2504 10.8886 13.1879 10.875 13.1244 10.873C12.891 10.8719 12.6514 11.0167 12.5608 11.2573C12.1712 12.5001 11.0129 13.2855 9.73261 13.1834C8.52945 13.1022 7.50338 12.3105 7.29504 11.3001C7.25337 11.0959 7.1065 10.9292 6.9117 10.8636C6.71586 10.7969 6.49814 10.8428 6.34606 10.9834C6.19293 11.1209 6.12418 11.3344 6.16584 11.5376C6.47939 13.0626 7.91068 14.2251 9.64511 14.3637C9.75136 14.372 9.85761 14.3762 9.96283 14.3762C11.6275 14.3762 13.115 13.2949 13.6431 11.6647C13.7525 11.3657 13.6025 11.0282 13.3098 10.9125ZM8.75867 7.56655C8.75867 8.09156 8.33158 8.51866 7.8076 8.51866C7.28259 8.51866 6.85549 8.09156 6.85549 7.56655C6.85549 7.04257 7.28259 6.61548 7.8076 6.61548C8.33158 6.61548 8.75867 7.04257 8.75867 7.56655Z" fill="#222222"/>
<path fill-rule="evenodd" clip-rule="evenodd" d="M12.0256 8.51866C12.5496 8.51866 12.9767 8.09156 12.9767 7.56655C12.9767 7.04257 12.5496 6.61548 12.0256 6.61548C11.5006 6.61548 11.0735 7.04257 11.0735 7.56655C11.0735 8.09156 11.5006 8.51866 12.0256 8.51866ZM13.3098 10.9125C13.2504 10.8886 13.1879 10.875 13.1244 10.873C12.891 10.8719 12.6514 11.0167 12.5608 11.2573C12.1712 12.5001 11.0129 13.2855 9.73261 13.1834C8.52945 13.1022 7.50338 12.3105 7.29504 11.3001C7.25337 11.0959 7.1065 10.9292 6.9117 10.8636C6.71586 10.7969 6.49814 10.8428 6.34606 10.9834C6.19293 11.1209 6.12418 11.3344 6.16584 11.5376C6.47939 13.0626 7.91068 14.2251 9.64511 14.3637C9.75136 14.372 9.85761 14.3762 9.96283 14.3762C11.6275 14.3762 13.115 13.2949 13.6431 11.6647C13.7525 11.3657 13.6025 11.0282 13.3098 10.9125ZM8.75867 7.56655C8.75867 8.09156 8.33158 8.51866 7.8076 8.51866C7.28259 8.51866 6.85549 8.09156 6.85549 7.56655C6.85549 7.04257 7.28259 6.61548 7.8076 6.61548C8.33158 6.61548 8.75867 7.04257 8.75867 7.56655Z" fill="black" fill-opacity="0.2"/>
<path fill-rule="evenodd" clip-rule="evenodd" d="M6.76619 7.56648C6.76619 6.99313 7.23333 6.52612 7.80759 6.52612C8.38087 6.52612 8.84794 6.99319 8.84794 7.56648C8.84794 8.14074 8.38094 8.60787 7.80759 8.60787C7.23326 8.60787 6.76619 8.1408 6.76619 7.56648ZM7.80759 6.70469C7.33182 6.70469 6.94477 7.09188 6.94477 7.56648C6.94477 8.04218 7.33189 8.4293 7.80759 8.4293C8.28219 8.4293 8.66937 8.04224 8.66937 7.56648C8.66937 7.09182 8.28225 6.70469 7.80759 6.70469ZM12.0256 6.70469C11.5498 6.70469 11.1628 7.09188 11.1628 7.56648C11.1628 8.04218 11.5499 8.4293 12.0256 8.4293C12.5002 8.4293 12.8874 8.04224 12.8874 7.56648C12.8874 7.09182 12.5002 6.70469 12.0256 6.70469ZM10.9842 7.56648C10.9842 6.99313 11.4513 6.52612 12.0256 6.52612C12.5989 6.52612 13.0659 6.99319 13.0659 7.56648C13.0659 8.14074 12.5989 8.60787 12.0256 8.60787C11.4513 8.60787 10.9842 8.1408 10.9842 7.56648ZM6.88291 10.948C6.718 10.8919 6.53462 10.9306 6.40666 11.0489L6.4057 11.0498L6.4057 11.0497C6.27665 11.1656 6.21787 11.3468 6.2533 11.5196C6.55764 12.9997 7.95097 14.1387 9.65208 14.2746C9.75603 14.2828 9.85995 14.2868 9.96281 14.2868C11.5881 14.2868 13.0418 13.2311 13.5582 11.6371L13.5592 11.6339L13.5593 11.6339C13.6523 11.3797 13.524 11.0931 13.277 10.9955L13.2764 10.9953C13.2268 10.9753 13.175 10.964 13.1227 10.9622C12.9248 10.9618 12.7221 11.0853 12.6452 11.2865C12.2426 12.5668 11.0473 13.3775 9.72605 13.2724C8.49237 13.1889 7.42573 12.376 7.20758 11.318L7.20755 11.3178C7.17217 11.1445 7.04751 11.0035 6.88318 10.9481L6.88291 10.948ZM6.94034 10.779C6.71381 10.7019 6.46207 10.7547 6.28591 10.9173C6.10903 11.0765 6.0305 11.3221 6.07837 11.5554L6.07837 11.5555C6.40114 13.1253 7.87032 14.3114 9.63799 14.4526L9.63811 14.4526C9.74667 14.4611 9.85525 14.4654 9.96281 14.4654C11.6663 14.4654 13.1873 13.3592 13.7276 11.6936C13.8522 11.3504 13.6806 10.9631 13.3429 10.8296C13.2742 10.8019 13.2015 10.7861 13.1273 10.7837L13.1273 10.7836L13.1248 10.7836C12.8571 10.7824 12.5821 10.9475 12.4772 11.2258L12.4771 11.2258L12.4756 11.2306C12.0983 12.4341 10.9779 13.1931 9.7397 13.0944L9.73861 13.0943C8.56625 13.0151 7.58104 12.2448 7.38249 11.282C7.33452 11.0471 7.1655 10.8549 6.94034 10.779Z" fill="white"/>
</svg>
