<svg width="16" height="14" viewBox="0 0 16 14" fill="none" xmlns="http://www.w3.org/2000/svg">
<path fill-rule="evenodd" clip-rule="evenodd" d="M13.5196 6.80179L13.518 6.80509C12.717 7.90051 10.8125 9.81624 8.0083 12.3482L7.92041 12.4284L7.83335 12.3458C7.68493 12.2062 7.50335 12.036 7.29689 11.8443L7.27533 11.8237C5.89646 10.5374 3.33025 8.14421 2.32201 6.80674C1.66118 5.89473 1.43233 4.6977 1.72419 3.68077C1.9663 2.76462 2.65284 2.00956 3.60553 1.61055C3.9604 1.47755 4.34596 1.41064 4.75307 1.41064C6.38068 1.41064 7.26787 3.0108 7.42955 3.33215C7.50666 3.51142 7.6982 3.62294 7.91958 3.62294C8.14013 3.62294 8.33084 3.5139 8.4038 3.34372C8.7081 2.69275 10.4874 0.688621 12.727 1.60725C13.5213 1.95173 14.0702 2.54735 14.3148 3.32967C14.6183 4.43583 14.3131 5.76503 13.5196 6.80179M15.3438 3.06449L15.3413 3.05623C14.9914 1.91373 14.2393 1.09919 13.1076 0.637402C10.4758 -0.38614 8.55223 1.45442 8.02572 2.04343L7.9229 2.15826L7.82755 2.036C6.9926 0.940582 5.87159 0.338352 4.67099 0.338352C4.17682 0.338352 3.67601 0.439137 3.18184 0.638228C1.92568 1.13885 1.00118 2.15165 0.64548 3.41724C0.290605 4.77948 0.594073 6.28712 1.45639 7.44945C2.32865 8.60682 4.29041 10.5663 7.28612 13.2735L7.46107 13.4313C7.50501 13.4709 7.53238 13.4965 7.54233 13.5064C7.6526 13.6163 7.81512 13.6667 7.91959 13.6667C8.02821 13.6667 8.18326 13.6138 8.28773 13.5626L8.31178 13.5428C8.31178 13.5411 8.36567 13.4924 8.45356 13.4123L8.54725 13.3272C11.5438 10.6209 13.508 8.65804 14.3853 7.49406C15.3778 6.09134 15.7368 4.43417 15.3438 3.06449" fill="#222222"/>
<path fill-rule="evenodd" clip-rule="evenodd" d="M13.5196 6.80179L13.518 6.80509C12.717 7.90051 10.8125 9.81624 8.0083 12.3482L7.92041 12.4284L7.83335 12.3458C7.68493 12.2062 7.50335 12.036 7.29689 11.8443L7.27533 11.8237C5.89646 10.5374 3.33025 8.14421 2.32201 6.80674C1.66118 5.89473 1.43233 4.6977 1.72419 3.68077C1.9663 2.76462 2.65284 2.00956 3.60553 1.61055C3.9604 1.47755 4.34596 1.41064 4.75307 1.41064C6.38068 1.41064 7.26787 3.0108 7.42955 3.33215C7.50666 3.51142 7.6982 3.62294 7.91958 3.62294C8.14013 3.62294 8.33084 3.5139 8.4038 3.34372C8.7081 2.69275 10.4874 0.688621 12.727 1.60725C13.5213 1.95173 14.0702 2.54735 14.3148 3.32967C14.6183 4.43583 14.3131 5.76503 13.5196 6.80179M15.3438 3.06449L15.3413 3.05623C14.9914 1.91373 14.2393 1.09919 13.1076 0.637402C10.4758 -0.38614 8.55223 1.45442 8.02572 2.04343L7.9229 2.15826L7.82755 2.036C6.9926 0.940582 5.87159 0.338352 4.67099 0.338352C4.17682 0.338352 3.67601 0.439137 3.18184 0.638228C1.92568 1.13885 1.00118 2.15165 0.64548 3.41724C0.290605 4.77948 0.594073 6.28712 1.45639 7.44945C2.32865 8.60682 4.29041 10.5663 7.28612 13.2735L7.46107 13.4313C7.50501 13.4709 7.53238 13.4965 7.54233 13.5064C7.6526 13.6163 7.81512 13.6667 7.91959 13.6667C8.02821 13.6667 8.18326 13.6138 8.28773 13.5626L8.31178 13.5428C8.31178 13.5411 8.36567 13.4924 8.45356 13.4123L8.54725 13.3272C11.5438 10.6209 13.508 8.65804 14.3853 7.49406C15.3778 6.09134 15.7368 4.43417 15.3438 3.06449" fill="black" fill-opacity="0.2"/>
<path d="M13.518 6.80509L13.5987 6.86412L13.6036 6.85739L13.6074 6.84995L13.518 6.80509ZM8.0083 12.3482L7.94128 12.274L7.94092 12.2744L8.0083 12.3482ZM7.92041 12.4284L7.85158 12.5009L7.91905 12.5649L7.98778 12.5023L7.92041 12.4284ZM7.83335 12.3458L7.90218 12.2732L7.90187 12.2729L7.83335 12.3458ZM7.29689 11.8443L7.2277 11.9165L7.22886 11.9176L7.29689 11.8443ZM7.27533 11.8237L7.34452 11.7515L7.34354 11.7505L7.27533 11.8237ZM2.32201 6.80674L2.24101 6.86543L2.24215 6.86694L2.32201 6.80674ZM1.72419 3.68077L1.82033 3.70836L1.82087 3.70632L1.72419 3.68077ZM3.60553 1.61055L3.57041 1.51685L3.5669 1.51832L3.60553 1.61055ZM7.42955 3.33215L7.52158 3.29257L7.51888 3.28721L7.42955 3.33215ZM8.4038 3.34372L8.31316 3.30135L8.31189 3.30431L8.4038 3.34372ZM12.727 1.60725L12.7668 1.51549L12.7649 1.51473L12.727 1.60725ZM14.3148 3.32967L14.4113 3.3032L14.4102 3.29983L14.3148 3.32967ZM15.3413 3.05623L15.437 3.0274L15.4369 3.02695L15.3413 3.05623ZM13.1076 0.637402L13.1453 0.5448L13.1438 0.544203L13.1076 0.637402ZM8.02572 2.04343L8.10022 2.11014L8.10028 2.11007L8.02572 2.04343ZM7.9229 2.15826L7.84405 2.21976L7.91761 2.31408L7.99741 2.22496L7.9229 2.15826ZM7.82755 2.036L7.74802 2.09662L7.7487 2.09749L7.82755 2.036ZM3.18184 0.638228L3.21886 0.731123L3.21921 0.730983L3.18184 0.638228ZM0.64548 3.41724L0.549192 3.39018L0.548709 3.39203L0.64548 3.41724ZM1.45639 7.44945L1.37607 7.50904L1.37653 7.50964L1.45639 7.44945ZM7.28612 13.2735L7.21907 13.3477L7.21915 13.3477L7.28612 13.2735ZM7.46107 13.4313L7.52806 13.357L7.52804 13.357L7.46107 13.4313ZM7.54233 13.5064L7.47175 13.5773L7.47175 13.5773L7.54233 13.5064ZM8.28773 13.5626L8.33175 13.6524L8.34229 13.6472L8.35135 13.6398L8.28773 13.5626ZM8.31178 13.5428L8.37539 13.6199L8.41178 13.5899V13.5428H8.31178ZM8.45356 13.4123L8.38633 13.3382L8.38619 13.3384L8.45356 13.4123ZM8.54725 13.3272L8.48023 13.253L8.48002 13.2532L8.54725 13.3272ZM14.3853 7.49406L14.4652 7.55428L14.4669 7.55182L14.3853 7.49406ZM13.4303 6.75693L13.4286 6.76023L13.6074 6.84995L13.609 6.84665L13.4303 6.75693ZM13.4373 6.74607C12.6433 7.83195 10.7463 9.74122 7.94128 12.274L8.07532 12.4225C10.8786 9.89126 12.7908 7.96906 13.5987 6.86412L13.4373 6.74607ZM7.94092 12.2744L7.85304 12.3545L7.98778 12.5023L8.07567 12.4221L7.94092 12.2744ZM7.98924 12.3558L7.90218 12.2732L7.76452 12.4183L7.85158 12.5009L7.98924 12.3558ZM7.90187 12.2729C7.75334 12.1332 7.57159 11.9629 7.36493 11.771L7.22886 11.9176C7.43511 12.1091 7.61653 12.2791 7.76483 12.4186L7.90187 12.2729ZM7.36607 11.7721L7.34451 11.7515L7.20615 11.8959L7.22771 11.9165L7.36607 11.7721ZM7.34354 11.7505C5.96109 10.461 3.40344 8.07518 2.40186 6.74655L2.24215 6.86694C3.25706 8.21324 5.83183 10.6139 7.20712 11.8968L7.34354 11.7505ZM2.40298 6.74807C1.75885 5.8591 1.53754 4.69361 1.82031 3.70835L1.62807 3.65318C1.32712 4.7018 1.5635 5.93035 2.24103 6.86542L2.40298 6.74807ZM1.82087 3.70632C2.05425 2.82322 2.71712 2.09105 3.64416 1.70279L3.5669 1.51832C2.58855 1.92807 1.87836 2.70602 1.62751 3.65522L1.82087 3.70632ZM3.64062 1.70419C3.98341 1.57572 4.35698 1.51064 4.75307 1.51064V1.31064C4.33493 1.31064 3.9374 1.37938 3.57043 1.51691L3.64062 1.70419ZM4.75307 1.51064C5.53156 1.51064 6.13644 1.89283 6.57074 2.32202C7.00536 2.75151 7.2618 3.22123 7.34022 3.3771L7.51888 3.28721C7.43562 3.12172 7.16763 2.63068 6.71133 2.17976C6.25471 1.72852 5.60219 1.31064 4.75307 1.31064V1.51064ZM7.33769 3.37167C7.43357 3.59456 7.66636 3.72294 7.91958 3.72294V3.52294C7.73003 3.52294 7.57976 3.42828 7.52142 3.29264L7.33769 3.37167ZM7.91958 3.72294C8.16997 3.72294 8.40333 3.59857 8.49571 3.38312L8.31189 3.30431C8.25834 3.42922 8.11029 3.52294 7.91958 3.52294V3.72294ZM8.49439 3.38607C8.63732 3.08031 9.14386 2.43068 9.89194 1.97214C10.6357 1.51624 11.6066 1.25577 12.689 1.69977L12.7649 1.51473C11.6078 1.04009 10.5693 1.32238 9.78742 1.80163C9.00987 2.27823 8.47458 2.95615 8.31321 3.30137L8.49439 3.38607ZM12.6872 1.69899C13.4565 2.03265 13.984 2.60665 14.2194 3.35952L14.4102 3.29983C14.1564 2.48806 13.5861 1.87082 12.7668 1.5155L12.6872 1.69899ZM14.2184 3.35613C14.5123 4.42763 14.2178 5.7251 13.4402 6.74101L13.5991 6.86257C14.4085 5.80495 14.7242 4.44403 14.4112 3.30322L14.2184 3.35613ZM15.4395 3.03566L15.437 3.0274L15.2455 3.08507L15.248 3.09333L15.4395 3.03566ZM15.4369 3.02695C15.078 1.85499 14.3042 1.01765 13.1453 0.544812L13.0698 0.729991C14.1745 1.18073 14.9048 1.97248 15.2457 3.08552L15.4369 3.02695ZM13.1438 0.544203C10.4477 -0.504394 8.48104 1.38401 7.95116 1.97679L8.10028 2.11007C8.62341 1.52483 10.504 -0.267887 13.0713 0.730601L13.1438 0.544203ZM7.95122 1.97672L7.8484 2.09155L7.99741 2.22496L8.10022 2.11014L7.95122 1.97672ZM8.00176 2.09676L7.90641 1.9745L7.7487 2.09749L7.84405 2.21976L8.00176 2.09676ZM7.90708 1.97537C7.05635 0.859251 5.90762 0.238352 4.67099 0.238352V0.438352C5.83557 0.438352 6.92886 1.02191 7.74802 2.09662L7.90708 1.97537ZM4.67099 0.238352C4.16305 0.238352 3.6496 0.341968 3.14447 0.545473L3.21921 0.730983C3.70243 0.536306 4.19058 0.438352 4.67099 0.438352V0.238352ZM3.14482 0.545333C1.86072 1.05709 0.913619 2.09362 0.54921 3.39018L0.74175 3.4443C1.08875 2.20968 1.99065 1.2206 3.21886 0.731123L3.14482 0.545333ZM0.548709 3.39203C0.185951 4.78454 0.496324 6.3232 1.37607 7.50903L1.5367 7.38987C0.691821 6.25105 0.395258 4.77443 0.74225 3.44245L0.548709 3.39203ZM1.37653 7.50964C2.25538 8.67575 4.22419 10.6413 7.21907 13.3477L7.35317 13.1993C4.35664 10.4914 2.40192 8.53789 1.53625 7.38926L1.37653 7.50964ZM7.21915 13.3477L7.3941 13.5055L7.52804 13.357L7.35309 13.1992L7.21915 13.3477ZM7.39408 13.5055C7.43811 13.5452 7.46376 13.5693 7.47175 13.5773L7.61291 13.4356C7.60099 13.4237 7.57192 13.3966 7.52806 13.357L7.39408 13.5055ZM7.47175 13.5773C7.60273 13.7078 7.79157 13.7667 7.91959 13.7667V13.5667C7.83867 13.5667 7.70248 13.5248 7.61291 13.4356L7.47175 13.5773ZM7.91959 13.7667C8.05097 13.7667 8.22245 13.706 8.33175 13.6524L8.24371 13.4728C8.14406 13.5217 8.00545 13.5667 7.91959 13.5667V13.7667ZM8.35135 13.6398L8.37539 13.6199L8.24816 13.4656L8.22411 13.4855L8.35135 13.6398ZM8.41178 13.5428C8.41178 13.5585 8.40807 13.5704 8.4061 13.576C8.40386 13.5823 8.40141 13.5872 8.39987 13.5901C8.39682 13.5957 8.3939 13.5998 8.39265 13.6015C8.38995 13.6052 8.38764 13.6078 8.38708 13.6084C8.38556 13.6101 8.38458 13.6111 8.38502 13.6107C8.38555 13.6101 8.38709 13.6086 8.39014 13.6058C8.39602 13.6002 8.40505 13.5919 8.41726 13.5807C8.44161 13.5584 8.47679 13.5264 8.52093 13.4862L8.38619 13.3384C8.34243 13.3783 8.30673 13.4107 8.28216 13.4332C8.26991 13.4444 8.25998 13.4536 8.253 13.4602C8.24962 13.4634 8.24627 13.4666 8.24351 13.4693C8.2423 13.4705 8.24007 13.4728 8.23773 13.4754C8.23675 13.4765 8.23412 13.4795 8.23121 13.4835C8.22986 13.4853 8.22686 13.4895 8.22376 13.4953C8.22296 13.4968 8.21178 13.5159 8.21178 13.5428H8.41178ZM8.52079 13.4863L8.61448 13.4012L8.48002 13.2532L8.38633 13.3382L8.52079 13.4863ZM8.61428 13.4014C11.61 10.6958 13.5813 8.72696 14.4651 7.55425L14.3054 7.43387C13.4348 8.58912 11.4775 10.5459 8.48023 13.253L8.61428 13.4014ZM14.4669 7.55182C15.4729 6.13001 15.843 4.44186 15.4399 3.03691L15.2477 3.09207C15.6305 4.42649 15.2826 6.05267 14.3036 7.4363L14.4669 7.55182Z" fill="#222222"/>
<path d="M13.518 6.80509L13.5987 6.86412L13.6036 6.85739L13.6074 6.84995L13.518 6.80509ZM8.0083 12.3482L7.94128 12.274L7.94092 12.2744L8.0083 12.3482ZM7.92041 12.4284L7.85158 12.5009L7.91905 12.5649L7.98778 12.5023L7.92041 12.4284ZM7.83335 12.3458L7.90218 12.2732L7.90187 12.2729L7.83335 12.3458ZM7.29689 11.8443L7.2277 11.9165L7.22886 11.9176L7.29689 11.8443ZM7.27533 11.8237L7.34452 11.7515L7.34354 11.7505L7.27533 11.8237ZM2.32201 6.80674L2.24101 6.86543L2.24215 6.86694L2.32201 6.80674ZM1.72419 3.68077L1.82033 3.70836L1.82087 3.70632L1.72419 3.68077ZM3.60553 1.61055L3.57041 1.51685L3.5669 1.51832L3.60553 1.61055ZM7.42955 3.33215L7.52158 3.29257L7.51888 3.28721L7.42955 3.33215ZM8.4038 3.34372L8.31316 3.30135L8.31189 3.30431L8.4038 3.34372ZM12.727 1.60725L12.7668 1.51549L12.7649 1.51473L12.727 1.60725ZM14.3148 3.32967L14.4113 3.3032L14.4102 3.29983L14.3148 3.32967ZM15.3413 3.05623L15.437 3.0274L15.4369 3.02695L15.3413 3.05623ZM13.1076 0.637402L13.1453 0.5448L13.1438 0.544203L13.1076 0.637402ZM8.02572 2.04343L8.10022 2.11014L8.10028 2.11007L8.02572 2.04343ZM7.9229 2.15826L7.84405 2.21976L7.91761 2.31408L7.99741 2.22496L7.9229 2.15826ZM7.82755 2.036L7.74802 2.09662L7.7487 2.09749L7.82755 2.036ZM3.18184 0.638228L3.21886 0.731123L3.21921 0.730983L3.18184 0.638228ZM0.64548 3.41724L0.549192 3.39018L0.548709 3.39203L0.64548 3.41724ZM1.45639 7.44945L1.37607 7.50904L1.37653 7.50964L1.45639 7.44945ZM7.28612 13.2735L7.21907 13.3477L7.21915 13.3477L7.28612 13.2735ZM7.46107 13.4313L7.52806 13.357L7.52804 13.357L7.46107 13.4313ZM7.54233 13.5064L7.47175 13.5773L7.47175 13.5773L7.54233 13.5064ZM8.28773 13.5626L8.33175 13.6524L8.34229 13.6472L8.35135 13.6398L8.28773 13.5626ZM8.31178 13.5428L8.37539 13.6199L8.41178 13.5899V13.5428H8.31178ZM8.45356 13.4123L8.38633 13.3382L8.38619 13.3384L8.45356 13.4123ZM8.54725 13.3272L8.48023 13.253L8.48002 13.2532L8.54725 13.3272ZM14.3853 7.49406L14.4652 7.55428L14.4669 7.55182L14.3853 7.49406ZM13.4303 6.75693L13.4286 6.76023L13.6074 6.84995L13.609 6.84665L13.4303 6.75693ZM13.4373 6.74607C12.6433 7.83195 10.7463 9.74122 7.94128 12.274L8.07532 12.4225C10.8786 9.89126 12.7908 7.96906 13.5987 6.86412L13.4373 6.74607ZM7.94092 12.2744L7.85304 12.3545L7.98778 12.5023L8.07567 12.4221L7.94092 12.2744ZM7.98924 12.3558L7.90218 12.2732L7.76452 12.4183L7.85158 12.5009L7.98924 12.3558ZM7.90187 12.2729C7.75334 12.1332 7.57159 11.9629 7.36493 11.771L7.22886 11.9176C7.43511 12.1091 7.61653 12.2791 7.76483 12.4186L7.90187 12.2729ZM7.36607 11.7721L7.34451 11.7515L7.20615 11.8959L7.22771 11.9165L7.36607 11.7721ZM7.34354 11.7505C5.96109 10.461 3.40344 8.07518 2.40186 6.74655L2.24215 6.86694C3.25706 8.21324 5.83183 10.6139 7.20712 11.8968L7.34354 11.7505ZM2.40298 6.74807C1.75885 5.8591 1.53754 4.69361 1.82031 3.70835L1.62807 3.65318C1.32712 4.7018 1.5635 5.93035 2.24103 6.86542L2.40298 6.74807ZM1.82087 3.70632C2.05425 2.82322 2.71712 2.09105 3.64416 1.70279L3.5669 1.51832C2.58855 1.92807 1.87836 2.70602 1.62751 3.65522L1.82087 3.70632ZM3.64062 1.70419C3.98341 1.57572 4.35698 1.51064 4.75307 1.51064V1.31064C4.33493 1.31064 3.9374 1.37938 3.57043 1.51691L3.64062 1.70419ZM4.75307 1.51064C5.53156 1.51064 6.13644 1.89283 6.57074 2.32202C7.00536 2.75151 7.2618 3.22123 7.34022 3.3771L7.51888 3.28721C7.43562 3.12172 7.16763 2.63068 6.71133 2.17976C6.25471 1.72852 5.60219 1.31064 4.75307 1.31064V1.51064ZM7.33769 3.37167C7.43357 3.59456 7.66636 3.72294 7.91958 3.72294V3.52294C7.73003 3.52294 7.57976 3.42828 7.52142 3.29264L7.33769 3.37167ZM7.91958 3.72294C8.16997 3.72294 8.40333 3.59857 8.49571 3.38312L8.31189 3.30431C8.25834 3.42922 8.11029 3.52294 7.91958 3.52294V3.72294ZM8.49439 3.38607C8.63732 3.08031 9.14386 2.43068 9.89194 1.97214C10.6357 1.51624 11.6066 1.25577 12.689 1.69977L12.7649 1.51473C11.6078 1.04009 10.5693 1.32238 9.78742 1.80163C9.00987 2.27823 8.47458 2.95615 8.31321 3.30137L8.49439 3.38607ZM12.6872 1.69899C13.4565 2.03265 13.984 2.60665 14.2194 3.35952L14.4102 3.29983C14.1564 2.48806 13.5861 1.87082 12.7668 1.5155L12.6872 1.69899ZM14.2184 3.35613C14.5123 4.42763 14.2178 5.7251 13.4402 6.74101L13.5991 6.86257C14.4085 5.80495 14.7242 4.44403 14.4112 3.30322L14.2184 3.35613ZM15.4395 3.03566L15.437 3.0274L15.2455 3.08507L15.248 3.09333L15.4395 3.03566ZM15.4369 3.02695C15.078 1.85499 14.3042 1.01765 13.1453 0.544812L13.0698 0.729991C14.1745 1.18073 14.9048 1.97248 15.2457 3.08552L15.4369 3.02695ZM13.1438 0.544203C10.4477 -0.504394 8.48104 1.38401 7.95116 1.97679L8.10028 2.11007C8.62341 1.52483 10.504 -0.267887 13.0713 0.730601L13.1438 0.544203ZM7.95122 1.97672L7.8484 2.09155L7.99741 2.22496L8.10022 2.11014L7.95122 1.97672ZM8.00176 2.09676L7.90641 1.9745L7.7487 2.09749L7.84405 2.21976L8.00176 2.09676ZM7.90708 1.97537C7.05635 0.859251 5.90762 0.238352 4.67099 0.238352V0.438352C5.83557 0.438352 6.92886 1.02191 7.74802 2.09662L7.90708 1.97537ZM4.67099 0.238352C4.16305 0.238352 3.6496 0.341968 3.14447 0.545473L3.21921 0.730983C3.70243 0.536306 4.19058 0.438352 4.67099 0.438352V0.238352ZM3.14482 0.545333C1.86072 1.05709 0.913619 2.09362 0.54921 3.39018L0.74175 3.4443C1.08875 2.20968 1.99065 1.2206 3.21886 0.731123L3.14482 0.545333ZM0.548709 3.39203C0.185951 4.78454 0.496324 6.3232 1.37607 7.50903L1.5367 7.38987C0.691821 6.25105 0.395258 4.77443 0.74225 3.44245L0.548709 3.39203ZM1.37653 7.50964C2.25538 8.67575 4.22419 10.6413 7.21907 13.3477L7.35317 13.1993C4.35664 10.4914 2.40192 8.53789 1.53625 7.38926L1.37653 7.50964ZM7.21915 13.3477L7.3941 13.5055L7.52804 13.357L7.35309 13.1992L7.21915 13.3477ZM7.39408 13.5055C7.43811 13.5452 7.46376 13.5693 7.47175 13.5773L7.61291 13.4356C7.60099 13.4237 7.57192 13.3966 7.52806 13.357L7.39408 13.5055ZM7.47175 13.5773C7.60273 13.7078 7.79157 13.7667 7.91959 13.7667V13.5667C7.83867 13.5667 7.70248 13.5248 7.61291 13.4356L7.47175 13.5773ZM7.91959 13.7667C8.05097 13.7667 8.22245 13.706 8.33175 13.6524L8.24371 13.4728C8.14406 13.5217 8.00545 13.5667 7.91959 13.5667V13.7667ZM8.35135 13.6398L8.37539 13.6199L8.24816 13.4656L8.22411 13.4855L8.35135 13.6398ZM8.41178 13.5428C8.41178 13.5585 8.40807 13.5704 8.4061 13.576C8.40386 13.5823 8.40141 13.5872 8.39987 13.5901C8.39682 13.5957 8.3939 13.5998 8.39265 13.6015C8.38995 13.6052 8.38764 13.6078 8.38708 13.6084C8.38556 13.6101 8.38458 13.6111 8.38502 13.6107C8.38555 13.6101 8.38709 13.6086 8.39014 13.6058C8.39602 13.6002 8.40505 13.5919 8.41726 13.5807C8.44161 13.5584 8.47679 13.5264 8.52093 13.4862L8.38619 13.3384C8.34243 13.3783 8.30673 13.4107 8.28216 13.4332C8.26991 13.4444 8.25998 13.4536 8.253 13.4602C8.24962 13.4634 8.24627 13.4666 8.24351 13.4693C8.2423 13.4705 8.24007 13.4728 8.23773 13.4754C8.23675 13.4765 8.23412 13.4795 8.23121 13.4835C8.22986 13.4853 8.22686 13.4895 8.22376 13.4953C8.22296 13.4968 8.21178 13.5159 8.21178 13.5428H8.41178ZM8.52079 13.4863L8.61448 13.4012L8.48002 13.2532L8.38633 13.3382L8.52079 13.4863ZM8.61428 13.4014C11.61 10.6958 13.5813 8.72696 14.4651 7.55425L14.3054 7.43387C13.4348 8.58912 11.4775 10.5459 8.48023 13.253L8.61428 13.4014ZM14.4669 7.55182C15.4729 6.13001 15.843 4.44186 15.4399 3.03691L15.2477 3.09207C15.6305 4.42649 15.2826 6.05267 14.3036 7.4363L14.4669 7.55182Z" fill="black" fill-opacity="0.2"/>
</svg>
