<svg width="36" height="36" viewBox="0 0 36 36" fill="none" xmlns="http://www.w3.org/2000/svg">
<circle cx="18" cy="18" r="18" fill="white"/>
<path d="M9 16.9963C9 12.5811 13.0291 9 18 9C22.9709 9 27 12.5811 27 16.9987C27 21.4139 22.9709 24.995 18 24.995C17.3958 24.995 16.8038 24.941 16.2313 24.8399L16.1579 24.8094L12.8645 26.956C12.7153 27.0641 12.5 26.9607 12.5 26.7798L12.3808 23.2397L12.371 23.235C10.4213 21.8158 9 20.2578 9 16.9963Z" fill="#757575"/>
<path d="M15.1108 18.57C15.921 18.57 16.6123 18.1784 16.8211 17.5747H18.0173C17.7256 18.7386 16.6033 19.5 15.1108 19.5C13.3758 19.5 12 18.454 12 17C12 15.5442 13.3758 14.5 15.1108 14.5C16.6191 14.5 17.748 15.2777 18.0263 16.4616H16.8323C16.6505 15.818 15.9345 15.4173 15.1108 15.4173C13.9437 15.4173 13.1671 16.0899 13.1671 17C13.1671 17.9119 14.0492 18.57 15.1108 18.57ZM23 19.4057H21.9025V17.4061C21.9025 16.9456 21.5703 16.6991 21.0608 16.6991C20.4907 16.6991 20.1249 16.9801 20.1249 17.5511V19.4057H19.0273V14.5145H20.1249V16.3546C20.3875 16.0319 20.8139 15.8742 21.3907 15.8742C21.8598 15.8742 22.2414 15.9975 22.5399 16.2513C22.8474 16.5051 23 16.8495 23 17.2955V19.4057Z" fill="white"/>
</svg>
