<svg width="24" height="24" viewBox="0 0 24 24" fill="none" xmlns="http://www.w3.org/2000/svg">
<path fill-rule="evenodd" clip-rule="evenodd" d="M7 5.2C6.55817 5.2 6.2 5.55817 6.2 6V19C6.2 19.4418 6.55817 19.8 7 19.8H17C17.4418 19.8 17.8 19.4418 17.8 19V6C17.8 5.55817 17.4418 5.2 17 5.2H7ZM7 4C5.89543 4 5 4.89543 5 6V19C5 20.1046 5.89543 21 7 21H17C18.1046 21 19 20.1046 19 19V6C19 4.89543 18.1046 4 17 4H7Z" fill="#222222"/>
<path fill-rule="evenodd" clip-rule="evenodd" d="M7 5.2C6.55817 5.2 6.2 5.55817 6.2 6V19C6.2 19.4418 6.55817 19.8 7 19.8H17C17.4418 19.8 17.8 19.4418 17.8 19V6C17.8 5.55817 17.4418 5.2 17 5.2H7ZM7 4C5.89543 4 5 4.89543 5 6V19C5 20.1046 5.89543 21 7 21H17C18.1046 21 19 20.1046 19 19V6C19 4.89543 18.1046 4 17 4H7Z" fill="black" fill-opacity="0.2"/>
<path d="M8.40002 8.00002C8.40002 7.66865 8.66865 7.40002 9.00002 7.40002H15C15.3314 7.40002 15.6 7.66865 15.6 8.00002C15.6 8.3314 15.3314 8.60002 15 8.60002L9.00002 8.60002C8.66865 8.60002 8.40002 8.3314 8.40002 8.00002Z" fill="#222222"/>
<path d="M8.40002 8.00002C8.40002 7.66865 8.66865 7.40002 9.00002 7.40002H15C15.3314 7.40002 15.6 7.66865 15.6 8.00002C15.6 8.3314 15.3314 8.60002 15 8.60002L9.00002 8.60002C8.66865 8.60002 8.40002 8.3314 8.40002 8.00002Z" fill="black" fill-opacity="0.2"/>
<path d="M8.40002 10.6001C8.40002 10.2688 8.66865 10.0001 9.00002 10.0001L15 10.0001C15.3314 10.0001 15.6 10.2688 15.6 10.6001C15.6 10.9315 15.3314 11.2001 15 11.2001L9.00002 11.2001C8.66865 11.2001 8.40002 10.9315 8.40002 10.6001Z" fill="#222222"/>
<path d="M8.40002 10.6001C8.40002 10.2688 8.66865 10.0001 9.00002 10.0001L15 10.0001C15.3314 10.0001 15.6 10.2688 15.6 10.6001C15.6 10.9315 15.3314 11.2001 15 11.2001L9.00002 11.2001C8.66865 11.2001 8.40002 10.9315 8.40002 10.6001Z" fill="black" fill-opacity="0.2"/>
<path d="M9.00002 12.6002C8.66865 12.6002 8.40002 12.8688 8.40002 13.2002C8.40002 13.5316 8.66865 13.8002 9.00002 13.8002L12 13.8002C12.3314 13.8002 12.6 13.5316 12.6 13.2002C12.6 12.8688 12.3314 12.6002 12 12.6002H9.00002Z" fill="#222222"/>
<path d="M9.00002 12.6002C8.66865 12.6002 8.40002 12.8688 8.40002 13.2002C8.40002 13.5316 8.66865 13.8002 9.00002 13.8002L12 13.8002C12.3314 13.8002 12.6 13.5316 12.6 13.2002C12.6 12.8688 12.3314 12.6002 12 12.6002H9.00002Z" fill="black" fill-opacity="0.2"/>
</svg>
