<svg width="24" height="24" viewBox="0 0 24 24" fill="none" xmlns="http://www.w3.org/2000/svg">
<path fill-rule="evenodd" clip-rule="evenodd" d="M5.45001 20.2634C5.45001 19.9596 5.69626 19.7134 6.00001 19.7134L16 19.7134C16.3038 19.7134 16.55 19.9596 16.55 20.2634C16.55 20.5671 16.3038 20.8134 16 20.8134L6.00001 20.8134C5.69626 20.8134 5.45001 20.5671 5.45001 20.2634Z" fill="#222222"/>
<path fill-rule="evenodd" clip-rule="evenodd" d="M5.45001 20.2634C5.45001 19.9596 5.69626 19.7134 6.00001 19.7134L16 19.7134C16.3038 19.7134 16.55 19.9596 16.55 20.2634C16.55 20.5671 16.3038 20.8134 16 20.8134L6.00001 20.8134C5.69626 20.8134 5.45001 20.5671 5.45001 20.2634Z" fill="black" fill-opacity="0.2"/>
<path fill-rule="evenodd" clip-rule="evenodd" d="M16.5 8.66348H5.5C5.27909 8.66348 5.1 8.84256 5.1 9.06348V11.5635C5.1 14.822 7.74152 17.4635 11 17.4635C14.2585 17.4635 16.9 14.822 16.9 11.5635V9.06348C16.9 8.84256 16.7209 8.66348 16.5 8.66348ZM5.5 7.56348C4.67157 7.56348 4 8.23505 4 9.06348V11.5635C4 15.4295 7.13401 18.5635 11 18.5635C14.866 18.5635 18 15.4295 18 11.5635V9.06348C18 8.23505 17.3284 7.56348 16.5 7.56348H5.5Z" fill="#222222"/>
<path fill-rule="evenodd" clip-rule="evenodd" d="M16.5 8.66348H5.5C5.27909 8.66348 5.1 8.84256 5.1 9.06348V11.5635C5.1 14.822 7.74152 17.4635 11 17.4635C14.2585 17.4635 16.9 14.822 16.9 11.5635V9.06348C16.9 8.84256 16.7209 8.66348 16.5 8.66348ZM5.5 7.56348C4.67157 7.56348 4 8.23505 4 9.06348V11.5635C4 15.4295 7.13401 18.5635 11 18.5635C14.866 18.5635 18 15.4295 18 11.5635V9.06348C18 8.23505 17.3284 7.56348 16.5 7.56348H5.5Z" fill="black" fill-opacity="0.2"/>
<path fill-rule="evenodd" clip-rule="evenodd" d="M16.8999 9.01343H18.0186C19.3678 9.01343 20.55 10.0198 20.55 11.5634C20.55 12.1715 20.2252 12.7327 19.8603 13.1713C19.4845 13.6229 19.0022 14.0217 18.5494 14.3156C18.5402 14.3215 18.5309 14.3272 18.5214 14.3326L16.793 15.3132L16.2502 14.3565L17.964 13.3841C18.3403 13.1382 18.7272 12.8133 19.0147 12.4677C19.3164 12.1052 19.45 11.7914 19.45 11.5634C19.45 10.6689 18.8028 10.1134 18.0186 10.1134H16.8999V9.01343Z" fill="#222222"/>
<path fill-rule="evenodd" clip-rule="evenodd" d="M16.8999 9.01343H18.0186C19.3678 9.01343 20.55 10.0198 20.55 11.5634C20.55 12.1715 20.2252 12.7327 19.8603 13.1713C19.4845 13.6229 19.0022 14.0217 18.5494 14.3156C18.5402 14.3215 18.5309 14.3272 18.5214 14.3326L16.793 15.3132L16.2502 14.3565L17.964 13.3841C18.3403 13.1382 18.7272 12.8133 19.0147 12.4677C19.3164 12.1052 19.45 11.7914 19.45 11.5634C19.45 10.6689 18.8028 10.1134 18.0186 10.1134H16.8999V9.01343Z" fill="black" fill-opacity="0.2"/>
<path fill-rule="evenodd" clip-rule="evenodd" d="M8.05 3C8.35376 3 8.6 3.24624 8.6 3.55V6.05C8.6 6.35376 8.35376 6.6 8.05 6.6C7.74624 6.6 7.5 6.35376 7.5 6.05V3.55C7.5 3.24624 7.74624 3 8.05 3ZM11.05 3C11.3538 3 11.6 3.24624 11.6 3.55V6.05C11.6 6.35376 11.3538 6.6 11.05 6.6C10.7462 6.6 10.5 6.35376 10.5 6.05V3.55C10.5 3.24624 10.7462 3 11.05 3ZM14.6 3.55C14.6 3.24624 14.3538 3 14.05 3C13.7462 3 13.5 3.24624 13.5 3.55V6.05C13.5 6.35376 13.7462 6.6 14.05 6.6C14.3538 6.6 14.6 6.35376 14.6 6.05V3.55Z" fill="#222222"/>
<path fill-rule="evenodd" clip-rule="evenodd" d="M8.05 3C8.35376 3 8.6 3.24624 8.6 3.55V6.05C8.6 6.35376 8.35376 6.6 8.05 6.6C7.74624 6.6 7.5 6.35376 7.5 6.05V3.55C7.5 3.24624 7.74624 3 8.05 3ZM11.05 3C11.3538 3 11.6 3.24624 11.6 3.55V6.05C11.6 6.35376 11.3538 6.6 11.05 6.6C10.7462 6.6 10.5 6.35376 10.5 6.05V3.55C10.5 3.24624 10.7462 3 11.05 3ZM14.6 3.55C14.6 3.24624 14.3538 3 14.05 3C13.7462 3 13.5 3.24624 13.5 3.55V6.05C13.5 6.35376 13.7462 6.6 14.05 6.6C14.3538 6.6 14.6 6.35376 14.6 6.05V3.55Z" fill="black" fill-opacity="0.2"/>
</svg>
