<svg width="20" height="20" viewBox="0 0 20 20" fill="none" xmlns="http://www.w3.org/2000/svg">
<path fill-rule="evenodd" clip-rule="evenodd" d="M5.96897 13.3763C5.78817 13.5571 5.78817 13.8503 5.96897 14.031C6.14977 14.2118 6.4429 14.2118 6.6237 14.031L10 10.6547L13.3764 14.031C13.5572 14.2118 13.8503 14.2118 14.0311 14.031C14.2119 13.8502 14.2119 13.5571 14.0311 13.3763L10.6548 9.99998L14.0311 6.62364C14.2119 6.44284 14.2119 6.14971 14.0311 5.96891C13.8503 5.78811 13.5572 5.78811 13.3764 5.96891L10 9.34525L6.6237 5.96891C6.4429 5.78811 6.14977 5.78811 5.96897 5.96891C5.78817 6.14971 5.78817 6.44284 5.96897 6.62364L9.34531 9.99998L5.96897 13.3763Z" fill="#BDBDBD"/>
</svg>
