<svg width="24" height="24" viewBox="0 0 24 24" fill="none" xmlns="http://www.w3.org/2000/svg">
<path fill-rule="evenodd" clip-rule="evenodd" d="M9.87147 4.07553L9.87143 4.07557L9.87147 4.07553ZM10.557 3.35227C10.3857 3.18883 10.1719 3.10073 9.95378 3.08267C9.80441 3.06974 9.65401 3.09089 9.51365 3.14456C9.37328 3.19823 9.24651 3.28306 9.14267 3.39281C9.05268 3.48774 8.98223 3.59985 8.93546 3.72258C8.88869 3.84531 8.86653 3.9762 8.87027 4.1076C8.87401 4.23899 8.90358 4.36826 8.95726 4.48784C9.01093 4.60743 9.08763 4.71493 9.18287 4.80406C9.37583 4.98758 9.63275 5.08629 9.89766 5.0787C10.1626 5.0711 10.414 4.95782 10.5972 4.76352C10.6872 4.66858 10.7576 4.55648 10.8044 4.43375C10.8512 4.31102 10.8733 4.18013 10.8696 4.04873C10.8659 3.91733 10.8363 3.78806 10.7826 3.66848C10.7289 3.5489 10.6522 3.4414 10.557 3.35227Z" fill="#222222"/>
<path fill-rule="evenodd" clip-rule="evenodd" d="M9.87147 4.07553L9.87143 4.07557L9.87147 4.07553ZM10.557 3.35227C10.3857 3.18883 10.1719 3.10073 9.95378 3.08267C9.80441 3.06974 9.65401 3.09089 9.51365 3.14456C9.37328 3.19823 9.24651 3.28306 9.14267 3.39281C9.05268 3.48774 8.98223 3.59985 8.93546 3.72258C8.88869 3.84531 8.86653 3.9762 8.87027 4.1076C8.87401 4.23899 8.90358 4.36826 8.95726 4.48784C9.01093 4.60743 9.08763 4.71493 9.18287 4.80406C9.37583 4.98758 9.63275 5.08629 9.89766 5.0787C10.1626 5.0711 10.414 4.95782 10.5972 4.76352C10.6872 4.66858 10.7576 4.55648 10.8044 4.43375C10.8512 4.31102 10.8733 4.18013 10.8696 4.04873C10.8659 3.91733 10.8363 3.78806 10.7826 3.66848C10.7289 3.5489 10.6522 3.4414 10.557 3.35227Z" fill="black" fill-opacity="0.2"/>
<path fill-rule="evenodd" clip-rule="evenodd" d="M18.7582 5.81503L18.7581 5.81507L18.7582 5.81503ZM19.4437 5.09177C19.2724 4.92834 19.0586 4.84024 18.8405 4.82217C18.6911 4.80924 18.5407 4.83039 18.4004 4.88406C18.26 4.93773 18.1332 5.02256 18.0294 5.13231C17.9394 5.22724 17.869 5.33935 17.8222 5.46208C17.7754 5.58481 17.7532 5.7157 17.757 5.8471C17.7607 5.97849 17.7903 6.10776 17.844 6.22735C17.8976 6.34693 17.9743 6.45443 18.0696 6.54356C18.2626 6.72708 18.5195 6.82579 18.7844 6.8182C19.0493 6.81061 19.3007 6.69732 19.4839 6.50302C19.5739 6.40809 19.6444 6.29598 19.6911 6.17325C19.7379 6.05052 19.7601 5.91963 19.7563 5.78823C19.7526 5.65683 19.723 5.52757 19.6693 5.40798C19.6157 5.2884 19.539 5.1809 19.4437 5.09177Z" fill="#222222"/>
<path fill-rule="evenodd" clip-rule="evenodd" d="M18.7582 5.81503L18.7581 5.81507L18.7582 5.81503ZM19.4437 5.09177C19.2724 4.92834 19.0586 4.84024 18.8405 4.82217C18.6911 4.80924 18.5407 4.83039 18.4004 4.88406C18.26 4.93773 18.1332 5.02256 18.0294 5.13231C17.9394 5.22724 17.869 5.33935 17.8222 5.46208C17.7754 5.58481 17.7532 5.7157 17.757 5.8471C17.7607 5.97849 17.7903 6.10776 17.844 6.22735C17.8976 6.34693 17.9743 6.45443 18.0696 6.54356C18.2626 6.72708 18.5195 6.82579 18.7844 6.8182C19.0493 6.81061 19.3007 6.69732 19.4839 6.50302C19.5739 6.40809 19.6444 6.29598 19.6911 6.17325C19.7379 6.05052 19.7601 5.91963 19.7563 5.78823C19.7526 5.65683 19.723 5.52757 19.6693 5.40798C19.6157 5.2884 19.539 5.1809 19.4437 5.09177Z" fill="black" fill-opacity="0.2"/>
<path fill-rule="evenodd" clip-rule="evenodd" d="M22.3272 13.79C22.4377 14.0729 22.2979 14.3919 22.0149 14.5024L21.2154 14.8147L21.5275 15.615C21.6379 15.898 21.498 16.2169 21.215 16.3273C20.932 16.4377 20.6131 16.2977 20.5027 16.0147L20.1908 15.2149L19.3905 15.5275C19.1075 15.638 18.7886 15.4982 18.678 15.2153C18.5675 14.9323 18.7073 14.6134 18.9903 14.5029L19.7911 14.1901L19.4785 13.3887C19.3681 13.1058 19.5081 12.7869 19.7911 12.6765C20.0741 12.5661 20.3929 12.706 20.5033 12.989L20.8157 13.7899L21.6148 13.4778C21.8977 13.3673 22.2166 13.507 22.3272 13.79Z" fill="#222222"/>
<path fill-rule="evenodd" clip-rule="evenodd" d="M22.3272 13.79C22.4377 14.0729 22.2979 14.3919 22.0149 14.5024L21.2154 14.8147L21.5275 15.615C21.6379 15.898 21.498 16.2169 21.215 16.3273C20.932 16.4377 20.6131 16.2977 20.5027 16.0147L20.1908 15.2149L19.3905 15.5275C19.1075 15.638 18.7886 15.4982 18.678 15.2153C18.5675 14.9323 18.7073 14.6134 18.9903 14.5029L19.7911 14.1901L19.4785 13.3887C19.3681 13.1058 19.5081 12.7869 19.7911 12.6765C20.0741 12.5661 20.3929 12.706 20.5033 12.989L20.8157 13.7899L21.6148 13.4778C21.8977 13.3673 22.2166 13.507 22.3272 13.79Z" fill="black" fill-opacity="0.2"/>
<path fill-rule="evenodd" clip-rule="evenodd" d="M8.49493 8.5277C8.41993 8.44907 8.28882 8.4738 8.24761 8.57434L4.06829 18.769C4.0203 18.8861 4.12984 19.0063 4.25084 18.9694L15.0214 15.6842C15.1282 15.6516 15.1633 15.5179 15.0862 15.4371L8.49493 8.5277ZM7.22981 8.15709C7.57327 7.31928 8.66585 7.11324 9.29086 7.76842L15.8821 14.6779C16.5243 15.3511 16.2323 16.4649 15.3424 16.7363L4.57177 20.0216C3.56346 20.3291 2.65063 19.3272 3.05049 18.3518L7.22981 8.15709Z" fill="#222222"/>
<path fill-rule="evenodd" clip-rule="evenodd" d="M8.49493 8.5277C8.41993 8.44907 8.28882 8.4738 8.24761 8.57434L4.06829 18.769C4.0203 18.8861 4.12984 19.0063 4.25084 18.9694L15.0214 15.6842C15.1282 15.6516 15.1633 15.5179 15.0862 15.4371L8.49493 8.5277ZM7.22981 8.15709C7.57327 7.31928 8.66585 7.11324 9.29086 7.76842L15.8821 14.6779C16.5243 15.3511 16.2323 16.4649 15.3424 16.7363L4.57177 20.0216C3.56346 20.3291 2.65063 19.3272 3.05049 18.3518L7.22981 8.15709Z" fill="black" fill-opacity="0.2"/>
<path fill-rule="evenodd" clip-rule="evenodd" d="M13.5 4.44995C13.8038 4.44995 14.05 4.69619 14.05 4.99995V8.49995C14.05 8.80371 13.8038 9.04995 13.5 9.04995C13.1963 9.04995 12.95 8.80371 12.95 8.49995V4.99995C12.95 4.69619 13.1963 4.44995 13.5 4.44995ZM18.9919 9.25398C19.1278 9.52567 19.0177 9.85604 18.746 9.99189L15.746 11.4919C15.4743 11.6277 15.1439 11.5176 15.0081 11.2459C14.8722 10.9742 14.9824 10.6439 15.254 10.508L18.254 9.00802C18.5257 8.87217 18.8561 8.9823 18.9919 9.25398Z" fill="#222222"/>
<path fill-rule="evenodd" clip-rule="evenodd" d="M13.5 4.44995C13.8038 4.44995 14.05 4.69619 14.05 4.99995V8.49995C14.05 8.80371 13.8038 9.04995 13.5 9.04995C13.1963 9.04995 12.95 8.80371 12.95 8.49995V4.99995C12.95 4.69619 13.1963 4.44995 13.5 4.44995ZM18.9919 9.25398C19.1278 9.52567 19.0177 9.85604 18.746 9.99189L15.746 11.4919C15.4743 11.6277 15.1439 11.5176 15.0081 11.2459C14.8722 10.9742 14.9824 10.6439 15.254 10.508L18.254 9.00802C18.5257 8.87217 18.8561 8.9823 18.9919 9.25398Z" fill="black" fill-opacity="0.2"/>
</svg>
